<?xml version="1.0" encoding="utf-8"?>
<!-- Generator: Adobe Illustrator 26.2.1, SVG Export Plug-In . SVG Version: 6.00 Build 0)  -->
<svg version="1.1" id="institutions" xmlns="http://www.w3.org/2000/svg" xmlns:xlink="http://www.w3.org/1999/xlink" x="0px"
	 y="0px" viewBox="0 0 210 160" style="enable-background:new 0 0 210 160;" xml:space="preserve">
<style type="text/css">
	.st0{fill:#AA985D;}
	.st1{fill:#002A4E;}
</style>
<g>
	<path class="st0" d="M141.3,78L141.3,78c-1.1,0.1-1.9,0.9-1.8,2c0,1,0.8,1.8,1.8,1.8c1.1-0.1,1.9-0.9,1.8-2
		C143.1,78.8,142.3,78,141.3,78z M141.3,81.5c-0.9,0-1.6-0.8-1.5-1.7c0-0.8,0.7-1.5,1.5-1.5l0,0c0.9,0,1.5,0.7,1.5,1.6c0,0,0,0,0,0
		C142.9,80.7,142.3,81.5,141.3,81.5C141.4,81.5,141.4,81.5,141.3,81.5L141.3,81.5z"/>
	<path class="st0" d="M141.7,79.9L141.7,79.9c0.2-0.1,0.4-0.3,0.4-0.5c0-0.2-0.1-0.3-0.2-0.4c-0.2-0.1-0.4-0.2-0.7-0.2
		c-0.2,0-0.4,0-0.6,0.1V81h0.3v-0.9h0.2c0.2,0,0.4,0.1,0.5,0.3c0,0,0,0,0,0.1c0,0.2,0.1,0.4,0.1,0.5h0.4c-0.1-0.2-0.1-0.3-0.1-0.5
		C142,80.1,141.9,80,141.7,79.9z M141.2,79.8H141v-0.7c0.1,0,0.2,0,0.2,0c0.4,0,0.5,0.2,0.5,0.4C141.7,79.7,141.5,79.8,141.2,79.8
		L141.2,79.8z"/>
	<path class="st0" d="M81,15.8L81,15.8z"/>
	<path class="st0" d="M89.8,36.6v16.6h8.9l0.9-5h4c-1.5,7.6-9,12.9-18.6,12.9c-0.7,0-1.3,0-2-0.1c-5.3-0.4-10.2-2.1-13.8-4.8
		c-3.9-3-6-7-6-11.5c0-4.9,2.1-9.5,5.8-12.8c3.8-3.3,8.5-5.1,13.5-5.3c0.3,0,0.6,0,1,0C90,26.8,96,29,100.9,33
		c0.1,0.1,0.2,0.2,0.4,0.3c0.1,0.1,0.2,0.2,0.3,0.3l0.1,0.1H112V15.8h-10.4v5.1c-4.4-2.8-11.9-5.6-20.6-5.6h-0.1
		c-9.5,0-18.7,3.9-25.4,10.7c-5.4,5.5-8.3,12.2-8.2,18.9c0.1,7.2,3.6,13.9,9.8,18.9c5.9,4.8,14,7.5,22.1,7.5c1,0,2,0,3-0.1
		c8-0.7,15.1-2.5,20.2-5.2v2.2h11V48.3h3.8v23.1h-5.7v10.4h25.6V71.4h-5.7V48.3h13l0.9,5h9V36.6H89.8z M81,15.8L81,15.8z"/>
	<path class="st1" d="M56.7,92.8c1.3,0,2.7,0.2,4,0.6c1.1,0.3,2.1,0.9,3,1.6c0.1,0.1,0.2,0.3,0.2,0.5v4c0,0.2-0.1,0.3-0.3,0.3
		c0,0-0.1,0-0.1,0h-3c-0.2,0-0.3-0.1-0.3-0.3c0,0,0-0.1,0-0.1v-2c0-0.1,0-0.2-0.1-0.3c-1.1-0.6-2.3-0.9-3.5-0.9c-2.5,0-4,1-4.7,3
		c-0.4,1.1-0.5,2.8-0.5,5.2c0,2.5,0.1,4.2,0.4,5.2c0.3,0.9,0.8,1.7,1.6,2.2c0.9,0.6,2,0.8,3.1,0.7c1.6,0,2.9-0.3,3.7-0.8
		c0.2-0.1,0.3-0.3,0.3-0.5V107c0-0.1-0.1-0.2-0.2-0.2c0,0,0,0-0.1,0h-3.6c-0.2,0-0.3-0.1-0.3-0.2c0,0,0-0.1,0-0.1v-2.7
		c0-0.2,0.1-0.3,0.2-0.3c0,0,0.1,0,0.1,0H64c0.2,0,0.3,0.1,0.3,0.3c0,0,0,0.1,0,0.1v9.6c0,0.3-0.2,0.6-0.4,0.8
		c-2,1.4-4.5,2.1-7.5,2.1c-4.5,0-7.3-1.8-8.5-5.3c-0.4-1.1-0.6-3.3-0.6-6.4c0-2.9,0.2-5,0.6-6.3C49.2,94.7,52.1,92.8,56.7,92.8z"/>
	<path class="st1" d="M74.3,99.5c1.5,0,2.9,0.4,4.2,1.2c1.2,0.8,2,1.9,2.4,3.3c0.4,1.6,0.6,3.2,0.5,4.9c0,0.2-0.1,0.3-0.4,0.3h-9.9
		c-0.1,0-0.2,0.1-0.2,0.2c0,0,0,0,0,0.1c0,0.4,0.1,0.8,0.2,1.2c0.6,1.6,1.8,2.4,3.6,2.4c1.4,0.1,2.8-0.5,3.8-1.5
		c0.2-0.2,0.3-0.2,0.5-0.1l2,1.7c0.1,0.1,0.2,0.3,0.1,0.4c0,0,0,0,0,0c-1.6,1.8-3.8,2.7-6.6,2.7c-1.5,0-3-0.4-4.3-1.2
		c-1.2-0.8-2-1.9-2.4-3.3c-0.4-1.3-0.6-2.6-0.6-3.9c0-1.3,0.2-2.7,0.5-4c0.4-1.3,1.3-2.5,2.4-3.3C71.4,99.8,72.9,99.4,74.3,99.5z
		 M74.4,102.6c-1.6,0-2.7,0.7-3.2,2.1c-0.1,0.4-0.2,0.9-0.2,1.4c0,0.1,0,0.2,0.1,0.2c0,0,0,0,0.1,0h6.3c0.1,0,0.2-0.1,0.2-0.2
		c0,0,0,0,0,0c0-0.5-0.1-0.9-0.2-1.4c-0.2-0.6-0.6-1.2-1.2-1.5C75.8,102.8,75.1,102.6,74.4,102.6L74.4,102.6z"/>
	<path class="st1" d="M91,99.5c1.5,0,2.9,0.4,4.2,1.2c1.2,0.8,2,1.9,2.4,3.3c0.7,2.6,0.7,5.4,0,8c-0.4,1.3-1.3,2.5-2.4,3.3
		c-2.6,1.6-5.8,1.6-8.4,0c-1.2-0.8-2-1.9-2.4-3.3c-0.7-2.6-0.7-5.4,0-8c0.4-1.3,1.3-2.5,2.4-3.3C88,99.8,89.5,99.4,91,99.5z
		 M91,102.8c-1.6,0-2.6,0.7-3,2.1c-0.3,1-0.4,2-0.3,3c0,1,0.1,2,0.3,3c0.6,1.7,2.5,2.5,4.1,1.9c0.9-0.3,1.6-1,1.9-1.9
		c0.3-1,0.4-2,0.3-3c0-1-0.1-2-0.3-3C93.5,103.5,92.5,102.8,91,102.8z"/>
	<path class="st1" d="M110.1,99.6c0.5,0,1.1,0.1,1.6,0.2c0.2,0,0.3,0.2,0.3,0.3v2.9c0,0.3-0.1,0.4-0.4,0.3c-0.7-0.1-1.3-0.2-2-0.3
		c-2.4,0-3.6,1.4-3.6,4.1v5.2c0,0.1,0.1,0.2,0.2,0.2c0,0,0,0,0.1,0h1.6c0.2,0,0.3,0.1,0.3,0.2c0,0,0,0.1,0,0.1v2.6
		c0,0.2-0.1,0.3-0.3,0.3c0,0-0.1,0-0.1,0h-7.1c-0.2,0-0.3-0.1-0.3-0.3c0,0,0-0.1,0-0.1V113c0-0.2,0.1-0.3,0.3-0.3c0,0,0,0,0.1,0h1.4
		c0.1,0,0.2-0.1,0.2-0.2c0,0,0,0,0,0v-9.2c0-0.1-0.1-0.2-0.2-0.2c0,0,0,0-0.1,0h-1.4c-0.2,0-0.3-0.1-0.3-0.3c0,0,0-0.1,0-0.1v-2.6
		c0-0.2,0.1-0.3,0.3-0.3c0,0,0.1,0,0.1,0h5.1c0.2,0,0.3,0.1,0.3,0.2c0,0,0,0.1,0,0.1v1.7h0C106.9,100.4,108.5,99.5,110.1,99.6z"/>
	<path class="st1" d="M119.4,99.5c2,0,3.4,0.6,4.2,1.9h0v-1.2c0-0.2,0.1-0.3,0.2-0.3c0,0,0.1,0,0.1,0h5.1c0.2,0,0.3,0.1,0.3,0.3
		c0,0,0,0.1,0,0.1v2.6c0,0.2-0.1,0.3-0.3,0.3c0,0-0.1,0-0.1,0h-1.4c-0.1,0-0.2,0.1-0.2,0.2c0,0,0,0,0,0.1v11.6
		c0,2.3-0.6,4.2-1.9,5.5c-1.3,1.3-3.1,1.9-5.6,1.9c-1.1,0-2.3-0.2-3.3-0.7c-1-0.4-1.8-1-2.5-1.8c-0.1-0.1-0.1-0.3,0-0.4c0,0,0,0,0,0
		l2-2c0.1-0.1,0.3-0.2,0.4-0.1c0,0,0.1,0.1,0.1,0.1c0.9,0.9,2.2,1.5,3.5,1.5c2.4,0,3.6-1.3,3.6-3.8v-1.5h0c-0.8,1.2-2.2,1.9-4.2,1.9
		c-1.2,0-2.4-0.3-3.4-1c-1-0.7-1.7-1.7-2-2.9c-0.4-1.3-0.6-2.7-0.5-4.1c0-1.4,0.1-2.8,0.5-4.1C114.8,100.8,116.6,99.5,119.4,99.5z
		 M120.4,102.8c-1.3-0.1-2.5,0.8-2.8,2c-0.3,0.9-0.4,1.7-0.4,2.6c0,0.9,0.1,1.8,0.4,2.6c0.5,1.6,2.2,2.4,3.8,1.9
		c0.9-0.3,1.6-1,1.9-1.9c0.3-0.9,0.4-1.7,0.4-2.6c0-0.9-0.1-1.8-0.4-2.6C123,103.6,121.7,102.7,120.4,102.8L120.4,102.8z"/>
	<path class="st1" d="M131.6,99.8h5.1c0.2,0,0.3,0.1,0.3,0.3c0,0,0,0.1,0,0.1v12.3c0,0.1,0,0.2,0.1,0.2c0,0,0,0,0.1,0h1.4
		c0.2,0,0.3,0.1,0.3,0.2c0,0,0,0.1,0,0.1v2.6c0,0.2-0.1,0.3-0.3,0.3c0,0-0.1,0-0.1,0h-7c-0.2,0-0.3-0.1-0.3-0.3c0,0,0-0.1,0-0.1V113
		c0-0.2,0.1-0.3,0.2-0.3c0,0,0.1,0,0.1,0h1.4c0.1,0,0.2-0.1,0.2-0.1c0,0,0,0,0-0.1v-9.2c0-0.1-0.1-0.2-0.2-0.2c0,0,0,0-0.1,0h-1.4
		c-0.2,0-0.3-0.1-0.3-0.3c0,0,0-0.1,0-0.1v-2.6C131.2,100,131.4,99.9,131.6,99.8C131.5,99.8,131.6,99.8,131.6,99.8z M133.6,93.2h3.1
		c0.2,0,0.3,0.1,0.3,0.2c0,0,0,0.1,0,0.1v2.9c0,0.2-0.1,0.3-0.3,0.3c0,0-0.1,0-0.1,0h-3.1c-0.2,0-0.3-0.1-0.3-0.3c0,0,0-0.1,0-0.1
		v-2.9C133.2,93.4,133.3,93.2,133.6,93.2C133.5,93.2,133.5,93.2,133.6,93.2z"/>
	<path class="st1" d="M147.4,99.5c2.4,0,4.2,0.4,5.2,1.3c1,0.9,1.5,2.3,1.5,4.3v7.4c0,0.1,0.1,0.2,0.2,0.2c0,0,0,0,0,0h1.4
		c0.2,0,0.3,0.1,0.3,0.2c0,0,0,0.1,0,0.1v2.6c0,0.2-0.1,0.3-0.3,0.3c0,0-0.1,0-0.1,0H151c-0.2,0-0.3-0.1-0.3-0.3c0,0,0-0.1,0-0.1
		v-1.2h0c-0.9,1.2-2.4,1.9-4.5,1.9c-1.4,0.1-2.8-0.4-3.9-1.3c-1-0.8-1.5-2.1-1.5-3.7c0-1.7,0.6-3,1.7-3.9s2.7-1.3,4.7-1.3h3.2
		c0.1,0,0.2-0.1,0.2-0.2c0,0,0,0,0-0.1v-0.6c0-1-0.2-1.7-0.7-2.1c-0.5-0.4-1.3-0.7-2.6-0.7c-0.6,0-1.2,0.1-1.7,0.2
		c-0.1,0-0.2,0.1-0.2,0.2v1.4c0,0.2-0.1,0.3-0.3,0.3c0,0-0.1,0-0.1,0h-2.9c-0.2,0-0.3-0.1-0.3-0.3c0,0,0-0.1,0-0.1v-3.4
		c0-0.2,0.1-0.4,0.3-0.4C143.7,99.8,145.6,99.4,147.4,99.5z M150.4,109h-2.6c-2.3,0-3.4,0.7-3.4,2.2c0,1.4,0.9,2,2.7,2
		c2.3,0,3.5-0.9,3.5-2.7v-1.3C150.6,109.1,150.5,109,150.4,109C150.4,109,150.4,109,150.4,109z"/>
	<path class="st1" d="M82,121.9h18c0.2,0,0.3,0.1,0.3,0.3c0,0,0,0.1,0,0.1v5.3c0,0.2-0.1,0.3-0.2,0.3c0,0-0.1,0-0.1,0h-2.9
		c-0.2,0-0.3-0.1-0.3-0.3c0,0,0-0.1,0-0.1v-2c0-0.1-0.1-0.2-0.2-0.2c0,0,0,0-0.1,0h-3.4c-0.1,0-0.2,0.1-0.2,0.2c0,0,0,0,0,0.1v15.6
		c0,0.1,0.1,0.2,0.2,0.2c0,0,0,0,0.1,0h1.7c0.2,0,0.3,0.1,0.3,0.3c0,0,0,0.1,0,0.1v2.6c0,0.2-0.1,0.3-0.3,0.3c0,0-0.1,0-0.1,0h-7.8
		c-0.2,0-0.3-0.1-0.3-0.3c0,0,0-0.1,0-0.1v-2.6c0-0.2,0.1-0.3,0.3-0.3c0,0,0.1,0,0.1,0h1.7c0.1,0,0.2,0,0.2-0.1c0,0,0,0,0-0.1v-15.6
		c0-0.1-0.1-0.2-0.2-0.2c0,0,0,0-0.1,0h-3.4c-0.1,0-0.2,0.1-0.2,0.2c0,0,0,0,0,0.1v2c0,0.2-0.1,0.3-0.3,0.3c0,0-0.1,0-0.1,0H82
		c-0.2,0-0.3-0.1-0.3-0.2c0,0,0-0.1,0-0.1v-5.3C81.7,122,81.8,121.9,82,121.9C82,121.9,82,121.9,82,121.9z"/>
	<path class="st1" d="M105.9,128.1c1.5,0,2.9,0.4,4.2,1.2c1.1,0.8,2,1.9,2.4,3.3c0.4,1.6,0.6,3.2,0.6,4.8c0,0.2-0.1,0.3-0.4,0.3
		h-9.9c-0.1,0-0.2,0.1-0.2,0.2c0,0,0,0,0,0.1c0,0.4,0.1,0.8,0.2,1.2c0.6,1.6,1.8,2.4,3.6,2.4c1.4,0.1,2.8-0.5,3.8-1.5
		c0.2-0.2,0.3-0.2,0.5-0.1l2,1.7c0.1,0.1,0.2,0.3,0.1,0.4c0,0,0,0,0,0c-1.6,1.8-3.8,2.7-6.6,2.7c-1.5,0-3-0.4-4.3-1.2
		c-1.2-0.8-2-1.9-2.4-3.3c-0.4-1.3-0.6-2.6-0.6-3.9c0-1.3,0.2-2.7,0.5-4c0.4-1.3,1.3-2.5,2.4-3.3C103,128.5,104.4,128.1,105.9,128.1
		z M105.9,131.3c-1.6,0-2.7,0.7-3.2,2.1c-0.1,0.4-0.2,0.9-0.2,1.4c0,0.1,0.1,0.2,0.2,0.2c0,0,0,0,0.1,0h6.3c0.1,0,0.2-0.1,0.2-0.2
		c0,0,0,0,0-0.1c0-0.5-0.1-0.9-0.2-1.4c-0.2-0.6-0.6-1.2-1.2-1.5C107.3,131.5,106.6,131.3,105.9,131.3L105.9,131.3z"/>
	<path class="st1" d="M122.7,128.1c1.9-0.1,3.8,0.4,5.5,1.3c0.2,0.1,0.3,0.3,0.3,0.4v3.7c0,0.2-0.1,0.3-0.2,0.3c0,0-0.1,0-0.1,0
		h-2.8c-0.2,0-0.3-0.1-0.3-0.3c0,0,0-0.1,0-0.1V132c0-0.1-0.1-0.2-0.2-0.2c-0.6-0.3-1.3-0.4-2-0.3c-1.7,0-2.8,0.7-3.3,2.1
		c-0.3,1-0.4,2-0.3,3c0,1,0.1,2,0.3,3c0.5,1.4,1.6,2.1,3.3,2.1c0.7,0,1.4-0.1,2-0.3c0.1,0,0.2-0.1,0.2-0.2v-1.5
		c0-0.2,0.1-0.3,0.3-0.3c0,0,0,0,0.1,0h2.8c0.2,0,0.3,0.1,0.3,0.2c0,0,0,0.1,0,0.1v3.7c0,0.2-0.1,0.4-0.3,0.4
		c-1.7,0.9-3.6,1.3-5.5,1.2c-3.6,0-5.9-1.4-6.8-4.3c-0.4-1.3-0.5-2.7-0.5-4.1c0-1.3,0.1-2.7,0.5-4c0.4-1.4,1.3-2.5,2.5-3.3
		C119.7,128.5,121.2,128.1,122.7,128.1z"/>
	<path class="st1" d="M131.6,121.9h5c0.2,0,0.3,0.1,0.3,0.3c0,0,0,0.1,0,0.1v7.8h0.1c0.9-1.2,2.3-1.9,4.2-1.9c1.5-0.1,3,0.5,4,1.7
		c1,1.2,1.6,2.7,1.5,4.3v7c0,0.1,0.1,0.2,0.2,0.2c0,0,0,0,0,0h1.4c0.2,0,0.3,0.1,0.3,0.3c0,0,0,0.1,0,0.1v2.6c0,0.2-0.1,0.3-0.3,0.3
		c0,0-0.1,0-0.1,0h-7c-0.2,0-0.3-0.1-0.3-0.2c0,0,0-0.1,0-0.1v-2.6c0-0.2,0.1-0.3,0.2-0.3c0,0,0.1,0,0.1,0h1.4
		c0.1,0,0.2-0.1,0.2-0.2c0,0,0,0,0-0.1v-6.1c0-0.9-0.2-1.8-0.8-2.6c-1.2-1.2-3.1-1.3-4.4-0.1c0,0-0.1,0.1-0.1,0.1
		c-0.6,0.7-0.8,1.6-0.8,2.6v6.1c0,0.1,0.1,0.2,0.2,0.2c0,0,0,0,0,0h1.4c0.2,0,0.3,0.1,0.3,0.3c0,0,0,0.1,0,0.1v2.6
		c0,0.2-0.1,0.3-0.3,0.3c0,0-0.1,0-0.1,0h-7c-0.2,0-0.3-0.1-0.3-0.2c0,0,0-0.1,0-0.1v-2.6c0-0.2,0.1-0.3,0.2-0.3c0,0,0.1,0,0.1,0
		h1.4c0.1,0,0.2-0.1,0.2-0.2c0,0,0,0,0-0.1v-15.8c0-0.1-0.1-0.2-0.2-0.2c0,0,0,0-0.1,0h-1.4c-0.2,0-0.3-0.1-0.3-0.3c0,0,0-0.1,0-0.1
		v-2.6C131.2,122,131.3,121.9,131.6,121.9C131.5,121.9,131.5,121.9,131.6,121.9z"/>
	<path class="st1" d="M152.6,141.3L152.6,141.3c-0.9,0-1.6,0.7-1.7,1.6c0,0.9,0.7,1.6,1.6,1.7c0.9,0,1.6-0.7,1.7-1.6c0,0,0,0,0,0
		C154.2,142,153.5,141.3,152.6,141.3C152.6,141.3,152.6,141.3,152.6,141.3L152.6,141.3z M152.6,144.3c-0.8-0.1-1.3-0.8-1.2-1.6
		c0.1-0.6,0.6-1.1,1.2-1.2l0,0c0.7,0,1.3,0.6,1.3,1.4c0,0,0,0,0,0C153.9,143.7,153.4,144.3,152.6,144.3
		C152.6,144.3,152.6,144.3,152.6,144.3z"/>
	<path class="st1" d="M152.9,143L152.9,143c0.2-0.1,0.4-0.2,0.4-0.5c0-0.1-0.1-0.3-0.2-0.4c-0.2-0.1-0.4-0.2-0.6-0.1
		c-0.2,0-0.3,0-0.5,0v1.8h0.3v-0.8h0.2c0.2,0,0.4,0.1,0.4,0.3c0,0,0,0,0,0c0,0.2,0.1,0.3,0.1,0.5h0.3c-0.1-0.1-0.1-0.3-0.1-0.5
		C153.2,143.2,153.1,143,152.9,143z M152.5,142.9h-0.2v-0.6c0.1,0,0.1,0,0.2,0c0.3,0,0.4,0.2,0.4,0.3S152.7,142.9,152.5,142.9z"/>
</g>
</svg>
